<svg xmlns="http://www.w3.org/2000/svg" viewBox="0 0 900 420" width="900" height="420">
<defs><linearGradient id="tbg" x1="0%" y1="0%" x2="0%" y2="100%">
<stop offset="0%" stop-color="#0d1117"/><stop offset="100%" stop-color="#161b22"/>
</linearGradient></defs>
<rect width="900" height="420" rx="12" fill="url(#tbg)"/>
<text x="450.0" y="28" text-anchor="middle" fill="#e6edf3" font-size="16" font-weight="bold">Awesome UAV / Drone 收录趋势</text>
<text x="450.0" y="46" text-anchor="middle" fill="#8b949e" font-size="12">总收录 3570 · 累计新增 815 · Stars 1,946,519</text>
<text x="62" y="340.0" text-anchor="end" fill="#8b949e" font-size="11" dominant-baseline="middle">0</text>
<line x1="70" y1="340.0" x2="870" y2="340.0" stroke="#21262d" stroke-dasharray="4 4"/>
<text x="62" y="268.8" text-anchor="end" fill="#8b949e" font-size="11" dominant-baseline="middle">892</text>
<line x1="70" y1="268.8" x2="870" y2="268.8" stroke="#21262d" stroke-dasharray="4 4"/>
<text x="62" y="197.5" text-anchor="end" fill="#8b949e" font-size="11" dominant-baseline="middle">1785</text>
<line x1="70" y1="197.5" x2="870" y2="197.5" stroke="#21262d" stroke-dasharray="4 4"/>
<text x="62" y="126.3" text-anchor="end" fill="#8b949e" font-size="11" dominant-baseline="middle">2677</text>
<line x1="70" y1="126.3" x2="870" y2="126.3" stroke="#21262d" stroke-dasharray="4 4"/>
<text x="62" y="55.0" text-anchor="end" fill="#8b949e" font-size="11" dominant-baseline="middle">3570</text>
<line x1="70" y1="55.0" x2="870" y2="55.0" stroke="#21262d" stroke-dasharray="4 4"/>

<line x1="70" y1="55" x2="70" y2="340" stroke="#30363d"/>
<line x1="70" y1="340" x2="870" y2="340" stroke="#30363d"/>
<path d="M70.0,120.1 L97.6,82.9 L125.2,81.7 L152.8,80.4 L180.3,79.5 L207.9,78.8 L235.5,77.6 L263.1,76.9 L290.7,75.9 L318.3,75.2 L345.9,74.2 L373.4,73.4 L401.0,71.8 L428.6,70.9 L456.2,70.2 L483.8,69.8 L511.4,68.5 L539.0,66.7 L566.6,65.7 L594.1,64.7 L621.7,63.8 L649.3,62.4 L676.9,62.0 L704.5,60.7 L732.1,59.7 L759.7,58.8 L787.2,57.8 L814.8,57.1 L842.4,56.4 L870.0,55.0 L870.0,340 L70.0,340 Z" fill="#58a6ff" opacity="0.12"/>
<polyline points="70.0,120.1 97.6,82.9 125.2,81.7 152.8,80.4 180.3,79.5 207.9,78.8 235.5,77.6 263.1,76.9 290.7,75.9 318.3,75.2 345.9,74.2 373.4,73.4 401.0,71.8 428.6,70.9 456.2,70.2 483.8,69.8 511.4,68.5 539.0,66.7 566.6,65.7 594.1,64.7 621.7,63.8 649.3,62.4 676.9,62.0 704.5,60.7 732.1,59.7 759.7,58.8 787.2,57.8 814.8,57.1 842.4,56.4 870.0,55.0" fill="none" stroke="#58a6ff" stroke-width="2.5" stroke-linecap="round" stroke-linejoin="round"/>
<circle cx="70.0" cy="120.1" r="3" fill="#58a6ff" stroke="#0d1117" stroke-width="1.5"/>
<circle cx="97.6" cy="82.9" r="3" fill="#58a6ff" stroke="#0d1117" stroke-width="1.5"/>
<circle cx="125.2" cy="81.7" r="3" fill="#58a6ff" stroke="#0d1117" stroke-width="1.5"/>
<circle cx="152.8" cy="80.4" r="3" fill="#58a6ff" stroke="#0d1117" stroke-width="1.5"/>
<circle cx="180.3" cy="79.5" r="3" fill="#58a6ff" stroke="#0d1117" stroke-width="1.5"/>
<circle cx="207.9" cy="78.8" r="3" fill="#58a6ff" stroke="#0d1117" stroke-width="1.5"/>
<circle cx="235.5" cy="77.6" r="3" fill="#58a6ff" stroke="#0d1117" stroke-width="1.5"/>
<circle cx="263.1" cy="76.9" r="3" fill="#58a6ff" stroke="#0d1117" stroke-width="1.5"/>
<circle cx="290.7" cy="75.9" r="3" fill="#58a6ff" stroke="#0d1117" stroke-width="1.5"/>
<circle cx="318.3" cy="75.2" r="3" fill="#58a6ff" stroke="#0d1117" stroke-width="1.5"/>
<circle cx="345.9" cy="74.2" r="3" fill="#58a6ff" stroke="#0d1117" stroke-width="1.5"/>
<circle cx="373.4" cy="73.4" r="3" fill="#58a6ff" stroke="#0d1117" stroke-width="1.5"/>
<circle cx="401.0" cy="71.8" r="3" fill="#58a6ff" stroke="#0d1117" stroke-width="1.5"/>
<circle cx="428.6" cy="70.9" r="3" fill="#58a6ff" stroke="#0d1117" stroke-width="1.5"/>
<circle cx="456.2" cy="70.2" r="3" fill="#58a6ff" stroke="#0d1117" stroke-width="1.5"/>
<circle cx="483.8" cy="69.8" r="3" fill="#58a6ff" stroke="#0d1117" stroke-width="1.5"/>
<circle cx="511.4" cy="68.5" r="3" fill="#58a6ff" stroke="#0d1117" stroke-width="1.5"/>
<circle cx="539.0" cy="66.7" r="3" fill="#58a6ff" stroke="#0d1117" stroke-width="1.5"/>
<circle cx="566.6" cy="65.7" r="3" fill="#58a6ff" stroke="#0d1117" stroke-width="1.5"/>
<circle cx="594.1" cy="64.7" r="3" fill="#58a6ff" stroke="#0d1117" stroke-width="1.5"/>
<circle cx="621.7" cy="63.8" r="3" fill="#58a6ff" stroke="#0d1117" stroke-width="1.5"/>
<circle cx="649.3" cy="62.4" r="3" fill="#58a6ff" stroke="#0d1117" stroke-width="1.5"/>
<circle cx="676.9" cy="62.0" r="3" fill="#58a6ff" stroke="#0d1117" stroke-width="1.5"/>
<circle cx="704.5" cy="60.7" r="3" fill="#58a6ff" stroke="#0d1117" stroke-width="1.5"/>
<circle cx="732.1" cy="59.7" r="3" fill="#58a6ff" stroke="#0d1117" stroke-width="1.5"/>
<circle cx="759.7" cy="58.8" r="3" fill="#58a6ff" stroke="#0d1117" stroke-width="1.5"/>
<circle cx="787.2" cy="57.8" r="3" fill="#58a6ff" stroke="#0d1117" stroke-width="1.5"/>
<circle cx="814.8" cy="57.1" r="3" fill="#58a6ff" stroke="#0d1117" stroke-width="1.5"/>
<circle cx="842.4" cy="56.4" r="3" fill="#58a6ff" stroke="#0d1117" stroke-width="1.5"/>
<circle cx="870.0" cy="55.0" r="3" fill="#58a6ff" stroke="#0d1117" stroke-width="1.5"/>
<path d="M70.0,340.0 L97.6,55.0 L125.2,330.8 L152.8,330.2 L180.3,333.3 L207.9,334.5 L235.5,330.8 L263.1,334.5 L290.7,332.7 L318.3,334.5 L345.9,332.7 L373.4,333.9 L401.0,327.8 L428.6,332.7 L456.2,334.5 L483.8,336.9 L511.4,330.2 L539.0,326.5 L566.6,332.0 L594.1,332.0 L621.7,333.3 L649.3,329.6 L676.9,336.9 L704.5,329.6 L732.1,332.7 L759.7,332.7 L787.2,332.7 L814.8,334.5 L842.4,334.5 L870.0,329.6 L870.0,340 L70.0,340 Z" fill="#3fb950" opacity="0.12"/>
<polyline points="70.0,340.0 97.6,55.0 125.2,330.8 152.8,330.2 180.3,333.3 207.9,334.5 235.5,330.8 263.1,334.5 290.7,332.7 318.3,334.5 345.9,332.7 373.4,333.9 401.0,327.8 428.6,332.7 456.2,334.5 483.8,336.9 511.4,330.2 539.0,326.5 566.6,332.0 594.1,332.0 621.7,333.3 649.3,329.6 676.9,336.9 704.5,329.6 732.1,332.7 759.7,332.7 787.2,332.7 814.8,334.5 842.4,334.5 870.0,329.6" fill="none" stroke="#3fb950" stroke-width="2.5" stroke-linecap="round" stroke-linejoin="round"/>
<circle cx="70.0" cy="340.0" r="3" fill="#3fb950" stroke="#0d1117" stroke-width="1.5"/>
<circle cx="97.6" cy="55.0" r="3" fill="#3fb950" stroke="#0d1117" stroke-width="1.5"/>
<circle cx="125.2" cy="330.8" r="3" fill="#3fb950" stroke="#0d1117" stroke-width="1.5"/>
<circle cx="152.8" cy="330.2" r="3" fill="#3fb950" stroke="#0d1117" stroke-width="1.5"/>
<circle cx="180.3" cy="333.3" r="3" fill="#3fb950" stroke="#0d1117" stroke-width="1.5"/>
<circle cx="207.9" cy="334.5" r="3" fill="#3fb950" stroke="#0d1117" stroke-width="1.5"/>
<circle cx="235.5" cy="330.8" r="3" fill="#3fb950" stroke="#0d1117" stroke-width="1.5"/>
<circle cx="263.1" cy="334.5" r="3" fill="#3fb950" stroke="#0d1117" stroke-width="1.5"/>
<circle cx="290.7" cy="332.7" r="3" fill="#3fb950" stroke="#0d1117" stroke-width="1.5"/>
<circle cx="318.3" cy="334.5" r="3" fill="#3fb950" stroke="#0d1117" stroke-width="1.5"/>
<circle cx="345.9" cy="332.7" r="3" fill="#3fb950" stroke="#0d1117" stroke-width="1.5"/>
<circle cx="373.4" cy="333.9" r="3" fill="#3fb950" stroke="#0d1117" stroke-width="1.5"/>
<circle cx="401.0" cy="327.8" r="3" fill="#3fb950" stroke="#0d1117" stroke-width="1.5"/>
<circle cx="428.6" cy="332.7" r="3" fill="#3fb950" stroke="#0d1117" stroke-width="1.5"/>
<circle cx="456.2" cy="334.5" r="3" fill="#3fb950" stroke="#0d1117" stroke-width="1.5"/>
<circle cx="483.8" cy="336.9" r="3" fill="#3fb950" stroke="#0d1117" stroke-width="1.5"/>
<circle cx="511.4" cy="330.2" r="3" fill="#3fb950" stroke="#0d1117" stroke-width="1.5"/>
<circle cx="539.0" cy="326.5" r="3" fill="#3fb950" stroke="#0d1117" stroke-width="1.5"/>
<circle cx="566.6" cy="332.0" r="3" fill="#3fb950" stroke="#0d1117" stroke-width="1.5"/>
<circle cx="594.1" cy="332.0" r="3" fill="#3fb950" stroke="#0d1117" stroke-width="1.5"/>
<circle cx="621.7" cy="333.3" r="3" fill="#3fb950" stroke="#0d1117" stroke-width="1.5"/>
<circle cx="649.3" cy="329.6" r="3" fill="#3fb950" stroke="#0d1117" stroke-width="1.5"/>
<circle cx="676.9" cy="336.9" r="3" fill="#3fb950" stroke="#0d1117" stroke-width="1.5"/>
<circle cx="704.5" cy="329.6" r="3" fill="#3fb950" stroke="#0d1117" stroke-width="1.5"/>
<circle cx="732.1" cy="332.7" r="3" fill="#3fb950" stroke="#0d1117" stroke-width="1.5"/>
<circle cx="759.7" cy="332.7" r="3" fill="#3fb950" stroke="#0d1117" stroke-width="1.5"/>
<circle cx="787.2" cy="332.7" r="3" fill="#3fb950" stroke="#0d1117" stroke-width="1.5"/>
<circle cx="814.8" cy="334.5" r="3" fill="#3fb950" stroke="#0d1117" stroke-width="1.5"/>
<circle cx="842.4" cy="334.5" r="3" fill="#3fb950" stroke="#0d1117" stroke-width="1.5"/>
<circle cx="870.0" cy="329.6" r="3" fill="#3fb950" stroke="#0d1117" stroke-width="1.5"/>
<text x="70.0" y="390" text-anchor="middle" fill="#8b949e" font-size="11">03-02</text>
<text x="180.3" y="390" text-anchor="middle" fill="#8b949e" font-size="11">03-27</text>
<text x="290.7" y="390" text-anchor="middle" fill="#8b949e" font-size="11">04-24</text>
<text x="401.0" y="390" text-anchor="middle" fill="#8b949e" font-size="11">05-22</text>
<text x="511.4" y="390" text-anchor="middle" fill="#8b949e" font-size="11">06-19</text>
<text x="621.7" y="390" text-anchor="middle" fill="#8b949e" font-size="11">07-17</text>
<text x="732.1" y="390" text-anchor="middle" fill="#8b949e" font-size="11">08-14</text>
<text x="842.4" y="390" text-anchor="middle" fill="#8b949e" font-size="11">09-11</text>

<rect x="640" y="402" width="12" height="12" rx="2" fill="#58a6ff"/>
<text x="656" y="412" fill="#8b949e" font-size="11">总数</text>
<rect x="750" y="402" width="12" height="12" rx="2" fill="#3fb950"/>
<text x="766" y="412" fill="#8b949e" font-size="11">每周新增</text>
</svg>