<svg xmlns="http://www.w3.org/2000/svg" xmlns:xlink="http://www.w3.org/1999/xlink" viewBox="0 0 718 718" width="718" height="718">
<rect width="718" height="718" rx="10" fill="#ffffff"/>
<text x="359.0" y="24" text-anchor="middle" fill="#000000" font-size="14" font-weight="bold">Awesome UAV</text>
<text x="359.0" y="42" text-anchor="middle" fill="#333333" font-size="10">每日热门 (2026-03-02)</text>
<rect x="24" y="56" width="670" height="32" fill="#f6f8fa" rx="4"/>
<text x="44.0" y="78" text-anchor="middle" fill="#333333" font-size="11">#</text>
<text x="174.0" y="78" text-anchor="middle" fill="#333333" font-size="11">项目</text>
<text x="324.0" y="78" text-anchor="middle" fill="#333333" font-size="11">⭐</text>
<text x="396.0" y="78" text-anchor="middle" fill="#333333" font-size="11">📈 日增</text>
<text x="561.0" y="78" text-anchor="middle" fill="#333333" font-size="11">描述</text>
<line x1="24" y1="88" x2="694" y2="88" stroke="#d0d7de" stroke-width="1"/>
<text x="44.0" y="104" text-anchor="middle" fill="#000000" font-size="11">1</text>
<text x="174.0" y="104" text-anchor="middle" fill="#000000" font-size="11">arpanghosh8453/open-dronelog</text>
<text x="324.0" y="104" text-anchor="middle" fill="#000000" font-size="11">1,042</text>
<text x="396.0" y="104" text-anchor="middle" fill="#000000" font-size="11">+5</text>
<text x="561.0" y="104" text-anchor="middle" fill="#000000" font-size="11">无人机记录分析器:是一个高性能的通用</text>
<text x="561.0" y="118" text-anchor="middle" fill="#000000" font-size="11">仪表板应用程序,用于在一个地方私下组</text>
<line x1="24" y1="138" x2="694" y2="138" stroke="#d0d7de" stroke-width="0.5"/>
<text x="44.0" y="150" text-anchor="middle" fill="#000000" font-size="11">2</text>
<text x="174.0" y="150" text-anchor="middle" fill="#000000" font-size="11">ArduPilot/ardupilot</text>
<text x="324.0" y="150" text-anchor="middle" fill="#000000" font-size="11">14,578</text>
<text x="396.0" y="150" text-anchor="middle" fill="#000000" font-size="11">+2</text>
<text x="561.0" y="150" text-anchor="middle" fill="#000000" font-size="11">机器人,机器人,机器人,机器人</text>
<line x1="24" y1="184" x2="694" y2="184" stroke="#d0d7de" stroke-width="0.5"/>
<text x="44.0" y="196" text-anchor="middle" fill="#000000" font-size="11">3</text>
<text x="174.0" y="196" text-anchor="middle" fill="#000000" font-size="11">kousheekc/isaac_drone_racer</text>
<text x="324.0" y="196" text-anchor="middle" fill="#000000" font-size="11">165</text>
<text x="396.0" y="196" text-anchor="middle" fill="#000000" font-size="11">+2</text>
<text x="561.0" y="196" text-anchor="middle" fill="#000000" font-size="11">艾萨克无人机赛车是高速度自动驾驶无人</text>
<text x="561.0" y="210" text-anchor="middle" fill="#000000" font-size="11">机赛车的强化学习框架,</text>
<line x1="24" y1="230" x2="694" y2="230" stroke="#d0d7de" stroke-width="0.5"/>
<text x="44.0" y="242" text-anchor="middle" fill="#000000" font-size="11">4</text>
<text x="174.0" y="242" text-anchor="middle" fill="#000000" font-size="11">lis-epfl/vswarm</text>
<text x="324.0" y="242" text-anchor="middle" fill="#000000" font-size="11">84</text>
<text x="396.0" y="242" text-anchor="middle" fill="#000000" font-size="11">+2</text>
<text x="561.0" y="242" text-anchor="middle" fill="#000000" font-size="11">基于视觉的无人机群体模拟和部署的RO</text>
<text x="561.0" y="256" text-anchor="middle" fill="#000000" font-size="11">S包</text>
<line x1="24" y1="276" x2="694" y2="276" stroke="#d0d7de" stroke-width="0.5"/>
<text x="44.0" y="288" text-anchor="middle" fill="#000000" font-size="11">5</text>
<text x="174.0" y="288" text-anchor="middle" fill="#000000" font-size="11">aau-cns/Ardupilot_Multiag...</text>
<text x="324.0" y="288" text-anchor="middle" fill="#000000" font-size="11">83</text>
<text x="396.0" y="288" text-anchor="middle" fill="#000000" font-size="11">+2</text>
<text x="561.0" y="288" text-anchor="middle" fill="#000000" font-size="11">使用 Ardupilot,ROS</text>
<text x="561.0" y="302" text-anchor="middle" fill="#000000" font-size="11">2 和 Gazebo 的多代理无人机系</text>
<line x1="24" y1="322" x2="694" y2="322" stroke="#d0d7de" stroke-width="0.5"/>
<text x="44.0" y="334" text-anchor="middle" fill="#000000" font-size="11">6</text>
<text x="174.0" y="334" text-anchor="middle" fill="#000000" font-size="11">PX4/PX4-Autopilot</text>
<text x="324.0" y="334" text-anchor="middle" fill="#000000" font-size="11">11,170</text>
<text x="396.0" y="334" text-anchor="middle" fill="#000000" font-size="11">+1</text>
<text x="561.0" y="334" text-anchor="middle" fill="#000000" font-size="11">专用驾驶软件</text>
<line x1="24" y1="368" x2="694" y2="368" stroke="#d0d7de" stroke-width="0.5"/>
<text x="44.0" y="380" text-anchor="middle" fill="#000000" font-size="11">7</text>
<text x="174.0" y="380" text-anchor="middle" fill="#000000" font-size="11">iNavFlight/inav</text>
<text x="324.0" y="380" text-anchor="middle" fill="#000000" font-size="11">3,969</text>
<text x="396.0" y="380" text-anchor="middle" fill="#000000" font-size="11">+1</text>
<text x="561.0" y="380" text-anchor="middle" fill="#000000" font-size="11">航空航母:可导航的飞行控制软件</text>
<line x1="24" y1="414" x2="694" y2="414" stroke="#d0d7de" stroke-width="0.5"/>
<text x="44.0" y="426" text-anchor="middle" fill="#000000" font-size="11">8</text>
<text x="174.0" y="426" text-anchor="middle" fill="#000000" font-size="11">jyjblrd/Low-Cost-Mocap</text>
<text x="324.0" y="426" text-anchor="middle" fill="#000000" font-size="11">2,260</text>
<text x="396.0" y="426" text-anchor="middle" fill="#000000" font-size="11">+1</text>
<text x="561.0" y="426" text-anchor="middle" fill="#000000" font-size="11">低成本的运动捕捉系统,用于室内尺度跟</text>
<text x="561.0" y="440" text-anchor="middle" fill="#000000" font-size="11">踪</text>
<line x1="24" y1="460" x2="694" y2="460" stroke="#d0d7de" stroke-width="0.5"/>
<text x="44.0" y="472" text-anchor="middle" fill="#000000" font-size="11">9</text>
<text x="174.0" y="472" text-anchor="middle" fill="#000000" font-size="11">mavlink/mavlink</text>
<text x="324.0" y="472" text-anchor="middle" fill="#000000" font-size="11">2,182</text>
<text x="396.0" y="472" text-anchor="middle" fill="#000000" font-size="11">+1</text>
<text x="561.0" y="472" text-anchor="middle" fill="#000000" font-size="11">无人机的通讯图书馆.</text>
<line x1="24" y1="506" x2="694" y2="506" stroke="#d0d7de" stroke-width="0.5"/>
<text x="44.0" y="518" text-anchor="middle" fill="#000000" font-size="11">10</text>
<text x="174.0" y="518" text-anchor="middle" fill="#000000" font-size="11">utiasDSL/gym-pybullet-drones</text>
<text x="324.0" y="518" text-anchor="middle" fill="#000000" font-size="11">1,857</text>
<text x="396.0" y="518" text-anchor="middle" fill="#000000" font-size="11">+1</text>
<text x="561.0" y="518" text-anchor="middle" fill="#000000" font-size="11">PyBullet Gymnasium</text>
<text x="561.0" y="532" text-anchor="middle" fill="#000000" font-size="11">环境,用于单机和多机器人增强学习四旋</text>
<line x1="24" y1="552" x2="694" y2="552" stroke="#d0d7de" stroke-width="0.5"/>
<a xlink:href="https://github.com/lllray/awesome-uav"><text x="694" y="708" text-anchor="end" fill="#57606a" font-size="10">github.com/lllray/awesome-uav</text></a>
</svg>